<svg xmlns="http://www.w3.org/2000/svg" xmlns:xlink="http://www.w3.org/1999/xlink" width="500" zoomAndPan="magnify" viewBox="0 0 375 374.999991" height="500" preserveAspectRatio="xMidYMid meet" version="1.0"><defs><clipPath id="f81c860a5c"><path d="M 57.792969 54.089844 L 198.445312 54.089844 L 198.445312 177.839844 L 57.792969 177.839844 Z M 57.792969 54.089844 " clip-rule="nonzero"/></clipPath><clipPath id="bcd65d75af"><path d="M 176.554688 127.0625 L 317.207031 127.0625 L 317.207031 250.8125 L 176.554688 250.8125 Z M 176.554688 127.0625 " clip-rule="nonzero"/></clipPath><clipPath id="2781d129da"><path d="M 57.792969 197.175781 L 198.445312 197.175781 L 198.445312 320.925781 L 57.792969 320.925781 Z M 57.792969 197.175781 " clip-rule="nonzero"/></clipPath></defs><g clip-path="url(#f81c860a5c)"><path fill="#ffffff" d="M 62.910156 115.957031 C 62.910156 116.332031 63.007812 116.707031 63.203125 117.042969 L 94.71875 171.628906 C 95.105469 172.300781 95.828125 172.71875 96.601562 172.71875 L 159.632812 172.71875 C 160.410156 172.71875 161.132812 172.300781 161.519531 171.628906 L 193.035156 117.042969 C 193.421875 116.371094 193.421875 115.539062 193.035156 114.867188 L 161.519531 60.28125 C 161.132812 59.609375 160.410156 59.191406 159.632812 59.191406 L 96.601562 59.191406 C 95.828125 59.191406 95.105469 59.609375 94.71875 60.28125 L 63.203125 114.867188 C 63.007812 115.203125 62.910156 115.578125 62.910156 115.957031 Z M 198.445312 115.957031 C 198.445312 117.21875 198.121094 118.480469 197.46875 119.605469 L 165.953125 174.191406 C 164.65625 176.441406 162.234375 177.839844 159.632812 177.839844 L 96.601562 177.839844 C 94.003906 177.839844 91.582031 176.441406 90.28125 174.191406 L 58.765625 119.605469 C 57.46875 117.355469 57.46875 114.558594 58.765625 112.308594 L 90.28125 57.71875 C 91.582031 55.46875 94.003906 54.070312 96.601562 54.070312 L 159.632812 54.070312 C 162.234375 54.070312 164.65625 55.46875 165.953125 57.71875 L 197.46875 112.308594 C 198.121094 113.433594 198.445312 114.695312 198.445312 115.957031 " fill-opacity="1" fill-rule="nonzero"/></g><g clip-path="url(#bcd65d75af)"><path fill="#ffffff" d="M 181.675781 188.925781 C 181.675781 189.304688 181.773438 189.679688 181.964844 190.015625 L 213.480469 244.601562 C 213.871094 245.273438 214.589844 245.691406 215.367188 245.691406 L 278.398438 245.691406 C 279.171875 245.691406 279.894531 245.273438 280.28125 244.601562 L 311.796875 190.015625 C 312.183594 189.34375 312.183594 188.511719 311.796875 187.839844 L 280.28125 133.253906 C 279.894531 132.582031 279.171875 132.164062 278.398438 132.164062 L 215.367188 132.164062 C 214.589844 132.164062 213.871094 132.582031 213.480469 133.253906 L 181.964844 187.839844 C 181.773438 188.175781 181.675781 188.550781 181.675781 188.925781 Z M 317.207031 188.925781 C 317.207031 190.1875 316.882812 191.449219 316.234375 192.574219 L 284.71875 247.164062 C 283.417969 249.414062 280.996094 250.8125 278.398438 250.8125 L 215.367188 250.8125 C 212.765625 250.8125 210.347656 249.414062 209.046875 247.164062 L 177.53125 192.574219 C 176.230469 190.324219 176.230469 187.53125 177.53125 185.277344 L 209.046875 130.691406 C 210.347656 128.441406 212.765625 127.042969 215.367188 127.042969 L 278.398438 127.042969 C 280.996094 127.042969 283.417969 128.441406 284.71875 130.691406 L 316.234375 185.277344 C 316.882812 186.402344 317.207031 187.664062 317.207031 188.925781 " fill-opacity="1" fill-rule="nonzero"/></g><g clip-path="url(#2781d129da)"><path fill="#ffffff" d="M 62.910156 259.042969 C 62.910156 259.417969 63.007812 259.792969 63.203125 260.128906 L 94.71875 314.714844 C 95.105469 315.386719 95.828125 315.804688 96.601562 315.804688 L 159.632812 315.804688 C 160.410156 315.804688 161.132812 315.386719 161.519531 314.714844 L 193.035156 260.128906 C 193.421875 259.457031 193.421875 258.625 193.035156 257.953125 L 161.519531 203.367188 C 161.132812 202.695312 160.410156 202.277344 159.632812 202.277344 L 96.601562 202.277344 C 95.828125 202.277344 95.105469 202.695312 94.71875 203.367188 L 63.203125 257.953125 C 63.007812 258.289062 62.910156 258.664062 62.910156 259.042969 Z M 198.445312 259.042969 C 198.445312 260.304688 198.121094 261.566406 197.46875 262.691406 L 165.953125 317.277344 C 164.65625 319.527344 162.234375 320.925781 159.632812 320.925781 L 96.601562 320.925781 C 94.003906 320.925781 91.582031 319.527344 90.28125 317.277344 L 58.765625 262.691406 C 57.46875 260.441406 57.46875 257.644531 58.765625 255.394531 L 90.28125 200.804688 C 91.582031 198.554688 94.003906 197.15625 96.601562 197.15625 L 159.632812 197.15625 C 162.234375 197.15625 164.65625 198.554688 165.953125 200.804688 L 197.46875 255.394531 C 198.121094 256.519531 198.445312 257.78125 198.445312 259.042969 " fill-opacity="1" fill-rule="nonzero"/></g></svg>
